<?xml version="1.0" encoding="utf-8"?>
<!-- Generator: Adobe Illustrator 15.1.0, SVG Export Plug-In . SVG Version: 6.00 Build 0)  -->
<!DOCTYPE svg PUBLIC "-//W3C//DTD SVG 1.1//EN" "http://www.w3.org/Graphics/SVG/1.1/DTD/svg11.dtd">
<svg version="1.1" id="Camada_1" xmlns="http://www.w3.org/2000/svg" xmlns:xlink="http://www.w3.org/1999/xlink" x="0px" y="0px"
	 width="500px" height="125px" viewBox="0 0 500 125" enable-background="new 0 0 500 125" xml:space="preserve">
<path fill="#172445" d="M339.653,1.278c-24.167,0-43.761,19.658-43.761,43.905c0,24.249,19.594,43.907,43.761,43.907
	c24.166,0,43.758-19.658,43.758-43.907C383.41,20.936,363.819,1.278,339.653,1.278z M339.653,60.931
	c-8.669,0-15.697-7.051-15.697-15.748c0-8.697,7.028-15.748,15.697-15.748c8.668,0,15.695,7.051,15.695,15.748
	C355.348,53.88,348.321,60.931,339.653,60.931z"/>
<ellipse fill="#0094CB" cx="339.682" cy="45.182" rx="10.506" ry="10.544"/>
<path fill="#A9173A" d="M43.365,2.577c-2.956,0-4.271,1.876-3.451,4.772l5.188,16.855l6.435-21.628L43.365,2.577L43.365,2.577z"/>
<path fill="#A9173A" d="M43.365,2.577c-2.956,0-4.271,1.876-3.451,4.772l5.188,16.855l6.435-21.628L43.365,2.577L43.365,2.577z"/>
<path fill="#172445" d="M112.121,2.577c2.955,0,4.271,1.876,3.448,4.772L91.912,84.211c-0.656,2.384-2.463,3.577-4.765,3.577H73.349
	h-4.131c-2.299,0-4.105-1.193-4.764-3.577l-7.592-25.009l-7.666,25.009c-0.656,2.384-2.465,3.577-4.764,3.577h-10.35h-5.421
	c-2.302,0-4.108-1.193-4.767-3.577L0.242,7.349c-0.823-2.896,0.491-4.772,3.449-4.772h17.742c2.299,0,3.944,1.023,4.601,3.58
	l12.779,49.41l9.337-31.339l6.426-21.651h4.646c2.301,0,3.943,1.194,4.6,3.58l13.925,46.527L89.778,6.157
	c0.657-2.557,2.137-3.58,4.601-3.58H112.121z M474.535,0.192C490.636,0.192,500,10.76,500,30.356v53.173
	c0,2.728-1.479,4.264-4.108,4.264h-16.428c-2.627,0-4.106-1.536-4.106-4.264V32.574c0-6.815-3.944-8.86-8.543-8.86
	c-4.929,0-9.53,2.556-9.53,10.904v48.911c0,2.728-1.478,4.264-4.105,4.264H436.75c-2.627,0-4.105-1.536-4.105-4.264V32.574
	c0-6.815-3.945-8.86-8.544-8.86c-4.93,0-9.528,2.556-9.528,10.904v48.911c0,2.728-1.478,4.264-4.107,4.264h-16.428
	c-2.629,0-4.106-1.536-4.106-4.264V6.842c0-2.73,1.479-4.262,4.106-4.262h16.428c2.631,0,4.107,1.531,4.107,4.262v3.475
	c3.767-5.899,10.312-10.123,18.895-10.123c8.295,0,14.911,3.479,19.046,10.143C457.836,4.426,464.68,0.192,474.535,0.192z
	 M192.622,62.908c1.933,0,3.296,0.874,3.647,2.242C189.025,79.355,174.3,89.09,157.3,89.09c-15.04,0-28.304-7.615-36.181-19.211
	c-4.229-7.029-6.534-15.479-6.534-24.697c0-10.013,2.819-19.115,7.815-26.482C130.39,8.118,143.048,1.279,157.3,1.279
	c16.159,0,30.262,8.792,37.842,21.865c3.132,6.432,4.873,13.912,4.873,22.038c0,2.216-0.164,4.262-0.33,6.308
	c-0.326,2.726-1.971,3.918-4.435,3.918h-20.043h-34.819c2.985,10.125,10.651,14.145,19.211,14.145c4.603,0,9.201-1.703,12.157-4.258
	c1.645-1.363,2.958-2.217,5.095-2.217L192.622,62.908z M158.45,22.859c-9.235,0-15.628,4.621-18.164,13.122h35.197
	C172.943,26.284,165.698,22.859,158.45,22.859z M286.757,55.408c2.791,0,4.437,1.876,3.45,4.773
	c-6.237,16.967-22.289,28.909-41.125,28.909c-14.265,0-26.929-6.852-34.917-17.449c-5.021-7.36-7.908-16.455-7.908-26.458
	c0-10.003,2.889-19.098,7.908-26.458c7.988-10.596,20.652-17.445,34.917-17.445c18.836,0,34.888,11.938,41.056,28.687
	c1.056,3.118-0.59,4.991-3.381,4.991h-18.071c-2.138,0-3.616-1.022-4.93-2.896c-2.956-4.262-8.049-6.648-13.964-6.648
	c-10.68,0-18.894,8.011-18.894,19.77c0,11.76,8.214,19.77,18.894,19.77c5.915,0,11.008-2.385,13.964-6.477
	c1.312-2.042,2.631-3.067,4.93-3.067L286.757,55.408L286.757,55.408z"/>
<linearGradient id="SVGID_1_" gradientUnits="userSpaceOnUse" x1="33.8289" y1="38.5342" x2="508.3596" y2="38.5342" gradientTransform="matrix(1 0 0 -1 -8.3599 149.0547)">
	<stop  offset="0.191" style="stop-color:#E6332A"/>
	<stop  offset="0.2486" style="stop-color:#D65D2E"/>
	<stop  offset="0.3774" style="stop-color:#9C9832"/>
	<stop  offset="0.4768" style="stop-color:#3AAA35"/>
	<stop  offset="0.5246" style="stop-color:#11A538"/>
	<stop  offset="0.6128" style="stop-color:#009B3E"/>
	<stop  offset="0.6497" style="stop-color:#009640"/>
	<stop  offset="0.6633" style="stop-color:#009652"/>
	<stop  offset="0.6961" style="stop-color:#00987F"/>
	<stop  offset="0.7272" style="stop-color:#009BA4"/>
	<stop  offset="0.7558" style="stop-color:#009CC0"/>
	<stop  offset="0.7813" style="stop-color:#009ED4"/>
	<stop  offset="0.8028" style="stop-color:#009EE0"/>
	<stop  offset="0.8177" style="stop-color:#009FE3"/>
</linearGradient>
<path fill="url(#SVGID_1_)" d="M172.222,104.627l-1.496-0.253l0.074-0.44c0.242-1.426,1.102-2.787,2.299-3.64
	c1.885-1.347,4.477-1.847,6.929-1.334c2.15,0.446,3.94,1.634,4.913,3.256l0.229,0.384l-1.293,0.771
	c-0.511,0.306-1.157,0.198-1.537-0.249c-0.648-0.766-1.661-1.323-2.854-1.572c-1.743-0.361-3.557-0.025-4.847,0.896
	c-0.474,0.337-0.868,0.854-1.084,1.414c-0.184,0.479-0.644,0.785-1.137,0.785C172.355,104.645,172.289,104.639,172.222,104.627z
	 M36.237,108.626c-0.771-0.276-1.552-0.474-2.338-0.67c-0.345-0.086-0.698-0.175-1.042-0.269l-0.432-0.119l-0.379,1.377
	c-0.087,0.314-0.044,0.645,0.12,0.927c0.166,0.283,0.433,0.483,0.751,0.563l0.361,0.092c0.726,0.182,1.409,0.353,2.059,0.587
	c2.11,0.761,3.21,2.136,2.938,3.677c-0.293,1.676-2.211,3.372-5.305,3.372c-1.919,0-3.703-0.752-4.656-1.965
	c-0.365-0.464-1.011-0.591-1.535-0.298l-1.311,0.73l0.218,0.391c1.292,2.3,4.15,3.785,7.284,3.785c4.557,0,7.431-2.798,7.916-5.562
	C41.282,113,40.267,110.081,36.237,108.626z M155.227,110.031c0,6.227-5.077,11.294-11.317,11.294s-11.316-5.067-11.316-11.294
	c0-6.229,5.076-11.295,11.316-11.295S155.227,103.803,155.227,110.031z M143.909,101.294c-4.826,0-8.755,3.918-8.755,8.736
	c0,4.817,3.929,8.735,8.755,8.735c4.827,0,8.756-3.918,8.756-8.735C152.665,105.212,148.737,101.294,143.909,101.294z
	 M180.91,109.145L180.91,109.145c-0.786-0.283-1.575-0.479-2.339-0.672c-0.345-0.084-0.699-0.174-1.042-0.269l-0.432-0.118
	l-0.379,1.377c-0.087,0.314-0.044,0.645,0.12,0.928c0.166,0.282,0.433,0.482,0.75,0.562l0.369,0.093
	c0.723,0.181,1.404,0.353,2.051,0.585c2.112,0.762,3.211,2.137,2.94,3.678c-0.295,1.676-2.212,3.371-5.306,3.371
	c-1.92,0-3.704-0.752-4.657-1.964c-0.359-0.459-1.021-0.586-1.533-0.299l-1.312,0.733l0.218,0.389
	c1.291,2.299,4.149,3.785,7.284,3.785c4.557,0,7.432-2.797,7.916-5.561C185.954,113.516,184.939,110.598,180.91,109.145z
	 M27.749,104.127c0.493,0,0.952-0.309,1.137-0.786v0.001c0.215-0.562,0.61-1.078,1.083-1.415c1.292-0.922,3.105-1.257,4.847-0.896
	c1.191,0.248,2.204,0.807,2.854,1.57c0.382,0.45,1.029,0.557,1.538,0.25l1.292-0.77l-0.229-0.384
	c-0.972-1.623-2.763-2.81-4.912-3.257c-2.454-0.514-5.044-0.012-6.93,1.334c-1.196,0.854-2.056,2.215-2.298,3.64l-0.075,0.44
	l1.496,0.254C27.616,104.123,27.683,104.127,27.749,104.127z M78.444,110.031c0,6.227-5.075,11.294-11.316,11.294
	s-11.317-5.067-11.317-11.294c0-6.229,5.076-11.295,11.317-11.295S78.444,103.803,78.444,110.031z M67.126,101.294
	c-4.827,0-8.755,3.918-8.755,8.736c0,4.817,3.928,8.735,8.755,8.735s8.755-3.918,8.755-8.735
	C75.881,105.212,71.954,101.294,67.126,101.294z M417.816,101.182c1.223,0,2.458,0.26,3.574,0.754
	c0.572,0.256,1.257,0.022,1.555-0.528l0.661-1.226l-0.394-0.212c-1.649-0.887-3.517-1.355-5.396-1.355
	c-6.273,0-11.379,5.095-11.379,11.354c0,6.262,5.104,11.355,11.379,11.355c1.882,0,3.747-0.471,5.396-1.357l0.394-0.213
	l-0.661-1.225c-0.298-0.549-0.98-0.783-1.555-0.527c-1.116,0.494-2.353,0.754-3.574,0.754c-4.854,0-8.806-3.941-8.806-8.787
	C409.01,105.124,412.96,101.182,417.816,101.182z M453.445,99.628h-0.786c-0.496,0-0.937,0.297-1.121,0.756l-8.479,20.94h1.959
	c0.495,0,0.937-0.297,1.122-0.756l6.939-17.146l3.592,8.298h-3.79c-0.668,0-1.21,0.541-1.21,1.207v1.358l8.913,0.001l-6.027-13.932
	C454.365,99.916,453.928,99.628,453.445,99.628z M500,110.031c0,6.227-5.077,11.294-11.318,11.294
	c-6.24,0-11.317-5.067-11.317-11.294c0-6.229,5.077-11.295,11.317-11.295C494.923,98.736,500,103.803,500,110.031z M488.682,101.294
	c-4.827,0-8.754,3.918-8.754,8.736c0,4.817,3.927,8.735,8.754,8.735c4.828,0,8.755-3.918,8.755-8.735
	C497.437,105.212,493.51,101.294,488.682,101.294z M273.623,100.855v16.106l-12.535-16.847c-0.228-0.305-0.59-0.487-0.971-0.487
	h-1.456v14.66h1.431c0.667,0,1.21-0.54,1.21-1.207v-8.259l11.914,16.014c0.228,0.307,0.591,0.488,0.972,0.488h2.076V99.648h-1.432
	C274.165,99.648,273.623,100.189,273.623,100.855z M236.842,100.833v20.491h1.391c0.668,0,1.211-0.542,1.211-1.208V99.625h-1.392
	C237.385,99.625,236.842,100.167,236.842,100.833z M315.65,110.031c0,6.227-5.077,11.294-11.317,11.294s-11.317-5.067-11.317-11.294
	c0-6.229,5.077-11.295,11.317-11.295S315.65,103.803,315.65,110.031z M304.332,101.294c-4.827,0-8.754,3.918-8.754,8.736
	c0,4.817,3.927,8.735,8.754,8.735s8.755-3.918,8.755-8.735C313.086,105.212,309.159,101.294,304.332,101.294z M348.059,100.389
	l-6.842,17.1l-6.871-17.102c-0.187-0.461-0.627-0.759-1.123-0.759h-1.954l8.413,20.938c0.186,0.461,0.625,0.759,1.123,0.759h0.827
	c0.498,0,0.938-0.298,1.124-0.761l8.377-20.937h-1.95C348.685,99.628,348.243,99.927,348.059,100.389z M419.787,123.992
	L419.787,123.992c0-0.45-0.364-0.816-0.815-0.816h-5.212c-0.451,0-0.816,0.366-0.816,0.816l0,0c0,0.451,0.365,0.816,0.816,0.816
	h5.212C419.422,124.809,419.787,124.443,419.787,123.992z M456.211,97.05L456.211,97.05c0-0.45-0.366-0.817-0.817-0.817h-5.212
	c-0.451,0-0.817,0.367-0.817,0.817l0,0c0,0.451,0.366,0.816,0.817,0.816h5.212C455.845,97.867,456.211,97.501,456.211,97.05z
	 M209.521,106.568c-2.16,0-3.916,1.752-3.916,3.908c0,2.155,1.756,3.908,3.916,3.908c2.159,0,3.917-1.753,3.917-3.908
	C213.438,108.32,211.68,106.568,209.521,106.568z M114.542,100.589c-0.117-0.56-0.611-0.961-1.186-0.961h-0.232
	c-0.42,0-0.816,0.224-1.033,0.581l-6.888,11.318l-6.806-11.193c-0.217-0.357-0.611-0.58-1.032-0.58h-0.233
	c-0.569,0-1.067,0.403-1.186,0.959l-2.939,14.121h1.568c0.522,0,0.98-0.37,1.088-0.881l2.113-9.834l6.383,10.779
	c0.221,0.365,0.606,0.584,1.034,0.584c0.001,0,0.001,0,0.002,0c0.428,0,0.813-0.215,1.034-0.58l6.411-10.535l3.352,15.996
	c0.116,0.56,0.61,0.961,1.185,0.961h1.707L114.542,100.589z M375.346,100.357l-6.028,13.932l8.914-0.001v-1.358
	c0-0.666-0.543-1.207-1.21-1.207h-3.791l3.591-8.298l6.941,17.146c0.187,0.46,0.627,0.756,1.122,0.756h1.958l-8.479-20.94
	c-0.187-0.459-0.627-0.756-1.122-0.756h-0.787C375.973,99.628,375.537,99.916,375.346,100.357z"/>
</svg>
